<?xml version="1.0" encoding="utf-8"?>
<!-- Generator: Adobe Illustrator 27.3.1, SVG Export Plug-In . SVG Version: 6.00 Build 0)  -->
<svg version="1.1" xmlns="http://www.w3.org/2000/svg" xmlns:xlink="http://www.w3.org/1999/xlink" x="0px" y="0px"
	 viewBox="0 0 800 800" style="enable-background:new 0 0 800 800;" xml:space="preserve">
<style type="text/css">
	.st0{display:none;}
	.st1{display:inline;}
	.st2{fill:#FFFFFF;}
</style>
<g id="Layer_2" class="st0">
	<rect class="st1" width="800" height="800"/>
</g>
<g id="Layer_1">
	<g id="页面-1">
		<g id="System" transform="translate(-672.000000, -48.000000)">
			<g id="information_fill" transform="translate(672.000000, 48.000000)">
				<path id="形状" class="st2" d="M400,66.7c184.1,0,333.3,149.2,333.3,333.3c0,184.1-149.2,333.3-333.3,333.3
					C215.9,733.3,66.7,584.1,66.7,400C66.7,215.9,215.9,66.7,400,66.7z M399.7,333.3h-33c-18.4,0-33.3,14.9-33.3,33.3
					c0,17.1,12.9,31.2,29.4,33.1l3.9,0.2v166.3c0,17.4,13.1,31.6,30,33.5l3.7,0.2h16.3c18.4,0,33.3-14.9,33.3-33.3
					c0-11-5.3-20.7-13.5-26.8l-3.2-2.1V367c0-17.4-13.1-31.6-30-33.5L399.7,333.3z M400,233.3c-18.4,0-33.3,14.9-33.3,33.3
					S381.6,300,400,300c18.4,0,33.3-14.9,33.3-33.3S418.4,233.3,400,233.3z"/>
			</g>
		</g>
	</g>
</g>
</svg>
