<svg width="241" height="351" viewBox="0 0 241 351" fill="none" xmlns="http://www.w3.org/2000/svg">
<path fill-rule="evenodd" clip-rule="evenodd" d="M105.266 0.931467C98.4849 2.70147 85.6769 8.77347 83.4689 11.2655C80.7579 14.3265 78.0049 20.0165 74.1569 30.5205C70.8179 39.6335 70.7069 40.3715 71.3569 49.2215C71.9369 57.1245 72.3689 58.7505 74.3989 60.6575C76.5549 62.6835 76.7659 63.6995 76.7659 72.0705C76.7659 80.7145 76.9879 81.6955 80.5159 88.6155C82.7849 93.0685 85.3269 96.5765 86.9529 97.5025C89.5419 98.9765 96.4759 106.929 99.9369 112.393C100.857 113.845 101.757 116.594 101.937 118.504C102.263 121.939 102.217 121.983 97.5659 122.664C94.9809 123.042 92.2909 123.707 91.5879 124.142C90.8839 124.577 86.2489 125.014 81.2869 125.115C76.3259 125.215 70.4659 125.76 68.2659 126.325C66.0659 126.891 61.6949 127.649 58.5519 128.01C54.0069 128.533 51.3489 129.659 45.5519 133.52C41.5449 136.189 37.3019 139.872 36.1239 141.703C34.9459 143.534 32.7759 146.987 31.3019 149.376C28.8019 153.429 13.8329 196.767 12.2519 204.532C11.8599 206.457 10.4649 210.325 9.1529 213.128C7.8399 215.932 6.7659 219.185 6.7659 220.357C6.7659 221.53 5.61889 225.906 4.21689 230.082C1.21089 239.037 -0.725105 257.596 0.257895 268.032C2.98089 296.939 6.0099 302.532 18.9409 302.532C23.7569 302.532 26.9749 303.108 29.5789 304.437C31.6329 305.484 35.4199 306.657 37.9939 307.044C46.3049 308.29 46.2649 308.167 43.4189 323.57C42.0509 330.974 40.6569 340.069 40.3209 343.782L39.7099 350.532H126.882H214.053L213.395 343.282C213.033 339.294 212.477 334.007 212.159 331.532C211.593 327.118 211.666 326.973 215.988 323.934C223.219 318.849 225.115 312.527 222.633 301.777C221.529 296.995 221.59 296.74 225.015 291.76C230.036 284.462 234.163 273.851 237.356 260.032C239.953 248.79 240.152 246.303 240.496 220.663C240.758 201.182 240.43 188.93 239.357 178.157C237.793 162.445 236.429 157.046 232.206 149.839C229.467 145.166 221.526 138.532 218.67 138.532C217.675 138.532 213.456 136.739 209.294 134.547C203.303 131.392 200.532 130.524 195.996 130.383C192.278 130.267 188.686 129.397 185.766 127.904C183.291 126.639 179.034 125.321 176.306 124.975C172.269 124.463 170.686 123.64 167.806 120.556C160.262 112.478 159.765 111.385 159.775 102.874C159.779 98.5615 160.072 92.6325 160.424 89.6995L161.064 84.3655L164.442 84.9995C167.282 85.5325 168.273 85.1795 170.668 82.7845C174.294 79.1585 176.569 67.7385 174.943 61.3295C174.293 58.7695 174.255 56.3775 174.84 54.8385C176.924 49.3575 176.571 48.1135 165.384 21.5325C162.902 15.6325 160.654 12.0045 158.037 9.67246C150.82 3.24146 151.548 3.47446 132.266 1.43846C115.488 -0.333537 110.474 -0.427533 105.266 0.931467Z" fill="white"/>
</svg>
